<svg version="1.1" id="Layer_1" xmlns="http://www.w3.org/2000/svg" xmlns:xlink="http://www.w3.org/1999/xlink" x="0px" y="0px"
	 viewBox="0 0 300 300" style="enable-background:new 0 0 300 300;" xml:space="preserve">
<style type="text/css">
	.st0{fill:#353145;}
	.st1{fill:#E6A74E;}
	.st2{fill:#CC3342;}
</style>
<g id="BACKGROUND">
</g>
<g>
	<g>
		<path class="st0" d="M227,178.9c-1.9-1.9-4.8-5.6-11.2-15.2c-1.5-5.2,0.7-20.8,3.7-34.9c2.6-12.6-1.9-14.5-5.2-18.6
			c2.2-8.5,10-36.8,8.5-46.5c-1.5-10-11.2-28.6-10-29.4c0.7-0.7,3.3-2.2,4.1-3.3c1.1-1.1,5.9-0.4,5.9-1.9S217,28,214.7,28
			c1.1-1.5,1.9-3,2.6-4.8c1.1,0,4.5,1.1,5.2,0.4s-1.9-2.2-4.8-3.3c0.7-2.2,3-8.5,1.9-8.5c-1.5,0-2.6,3-4.8,8.2
			c-4.8,6.3-10.4,10.4-8.5,16c2.2,6.7,4.1,20.8,7.1,29c-0.4,3.7-1.1,7.8-2.6,11.9c0-7.8-2.6-16.4-12.6-16.4
			c-12.6,0-13.4,13.8-11.9,21.9c0.7,3.7,2.6,7.1,4.5,9.7c0,0,4.5,4.5,10.8,1.9c5.6-2.6,7.8-8.5,8.9-13.8
			c-0.7,7.8-6.3,20.4-19.7,14.5c0,1.5-0.4,3-1.1,4.1c1.1,3.7,7.1,18.2,17.5,16c-4.5,2.2-14.1-0.7-19-15.6c-4.8,0-16,9.3-25.3,22.3
			c-9.3,12.6-14.5,12.6-21.9,11.9c3.3-0.4,9.7,2.2,19.3-10.4c8.5-11.5,16.4-19.7,21.2-23c-2.6-1.5-5.9-3.3-8.5-4.5
			c-1.9,5.6-3.7,11.5-6.3,17.8c-2.2-3.3-6.3-6.7-10.4-15.6c3.7,4.5,7.1,8.9,10.4,12.6c3.3-8.2,4.5-15.6,4.5-15.6
			c0.4-2.2,0.4-4.8,0.4-7.1c2.6-2.6,4.8-6.3,5.6-10c1.5-8.2,0.7-21.9-13.4-21.9c-13.8,0-14.9,13.8-13.4,21.9c0.4,3,1.9,5.6,3.7,7.8
			c0,0,8.2,9.3,16,3c-2.6,3.3-10.4,4.8-16.4-0.7c-0.4,1.9-1.1,3.3-1.9,4.5c0,0-15.6,7.1-36.4,16s-31.6,15.2-28.3,23
			c3.7,8.2,10.8,10,21.9,13c7.1,1.9,10,3.7,21.6,1.1c3.3,0,8.2,0.4,12.6,0.4c1.5,9.7,0.4,21.2-9.7,34.6
			c-17.5,22.7-45.7,66.2-68,84.4c0,0-5.9,4.1-11.2,11.2c-5.2,5.9-10,7.4-8.2,11.2c1.9,3.7,13.4,0.7,17.5-3.3c3-3,9.7-6.3,16-9.7
			c-2.2-1.5-6.3-4.8-9.7-8.5c5.9,4.1,19.3,11.5,23,13c5.9-11.9,27.5-45.3,67.7-79.9c1.5-5.2,4.1-14.5,7.4-24.9
			c4.8-15.6,12.3-23.4,16.4-27.5c4.1-4.1,5.2-6.7-4.1-21.2c-6.7,3.7-15.6,8.9-19,12.3c-3.3,3.3-5.6,10-18.2,7.1
			c0,0,10.4,0.7,14.9-5.2c4.5-5.9,13.8-10.4,21.9-16.7c6.3,11.5,12.3,17.8,6.7,23.8c-5.9,5.9-13.4,17.5-16.7,28.3
			c-3.3,10.8-9.3,30.9-12.3,35.3c-5.6,5.6-10.4,9.7-15.6,24.2c-5.2,14.5-10,21.6-12.3,23.8c-1.9,1.9-7.1,2.6-10.4,5.6l0,0
			c0,0-3.7,1.9-5.6,3.7c0,1.1,0,2.2,0,2.2h1.9c-3.3,6.7-7.8,17.5-6.3,17.5c1.5,0,5.6,1.9,21.2-18.2s34.2-41.6,41.6-53.9
			c2.6-4.5,5.6-8.5,8.5-12.3c8.9,10.8,16,17.5,16,20.4c0,4.1-11.9,38.7-11.9,52.8c0,0-1.1,8.5,1.5,10.8c1.9,0,8.5,0,14.9,0
			c0.4,0,0.7,0,1.1,0c0.7,0,1.1,0,1.9,0c3.3,0,6.7,0,8.5,0c1.9,0,3,0,3,0c4.1,0,11.5,0,14.5,0c4.1,0-0.4-2.6-3.3-3.3
			c-3-1.1-13-5.2-13.8-13.4c3.7-7.8,22.7-43.1,28.6-54.3C248.2,204.2,243.4,199.3,227,178.9z M136.7,132.1
			c-1.5-5.6-11.2-2.6-12.6-1.1c-2.2,0-3.7-1.1-10-2.6c0,0,13.4-1.1,23.8-1.1c0.7,1.9,1.5,3.7,2.2,5.6
			C138.9,132.4,137.8,132.4,136.7,132.1z M206.2,100.1c-1.9-2.6-1.5-4.8-1.5-4.8c0.7,2.6,1.9,3.7,3.3,5.6c2.2,3.3,4.1,7.1,2.2,9.7
			C211,107.5,208.1,102.3,206.2,100.1z M220.7,220.1c0,0-5.2,10.4-7.4,22.3c-2.2,11.9-5.9,19.7-8.9,25.3c-0.7,1.1-1.1,1.5-1.9,3.3
			c0.4-3,0.7-3.7,1.9-6.3c3-5.9,6.3-14.9,7.4-22.7c0.7-7.1,5.6-19.7,8.9-24.2c-0.7-4.8-2.6-9.7-5.9-15.6c-3.7-2.6-11.9-8.9-19.3-16
			c-6.3,7.4-10.8,11.5-14.1,15.2c0,0,10-13,14.1-17.1c9.3,9.3,29.7,24.2,32,26.4C224.4,214.6,222.2,217.5,220.7,220.1z"/>
		<path class="st1" d="M214.4,110.1c2.2,2.2,5.9,5.2,5.9,10.4c0.4,7.8-1.9,11.9-3,20.1c-1.1,8.2-2.6,20.8-1.1,23
			c1.5,2.2,6.7,10,8.5,12.6c-3.7,5.6-3.7,24.5-54.6-1.9c1.1-5.2,4.8-11.9,8.5-17.8c4.1-6.7,11.5-13,10.4-16
			c-0.7-3.3-5.9-12.3-8.9-17.8c2.2-1.1,10-4.1,7.8-24.2C194.3,117.6,207.3,116.4,214.4,110.1z"/>
		<path class="st0" d="M215.1,165.1c0,0-7.4,13-16,15.6C206.2,178.9,211.8,174.4,215.1,165.1z"/>
		<path class="st0" d="M199.5,183c0,0,14.5,0,19.7-11.9C217.7,177.8,211.4,184.1,199.5,183z"/>
		<path class="st0" d="M188.7,120.9c0,0,5.6,13.4,15.6,10.8C198,134.7,191.3,130.2,188.7,120.9z"/>
		<path class="st1" d="M109.2,286.7c1.1,0,3,0.7,8.9-4.5c-3.7-3.7,6.3-21.9,6.3-21.9c-4.8,1.5-13.8,7.8-17.1,10
			c0.4,1.1,0.4,1.9,0.4,1.9l7.8-3C112.5,275.9,108.1,286.7,109.2,286.7z"/>
		<path class="st1" d="M204,267.7c3.3,4.8,11.2,15.2,19,13.4c5.6,2.6,13,5.6,8.2,5.6s-13,0-17.8,0c-1.1-1.5-5.6-8.2-7.4-11.9
			c-1.1,3-1.9,5.6-2.6,11.9c-1.1,0,0,0-1.5,0C201.4,282.6,200.2,272.9,204,267.7z"/>
		<path class="st2" d="M124,130.6c-2.2,5.9-3,8.9-3,14.5c-7.4,0-34.9-4.8-34.9-18.6c0-8.5,25.6-18.2,41.3-24.9
			c13.4-5.6,20.1-8.9,24.5-10.8c5.2,7.4,13,19.3,14.5,21.6c1.9-4.5,5.2-14.1,6.3-17.8c2.6,1.1,7.1,2.6,8.5,4.5
			c-3,2.2-11.9,11.5-16,16.4c-3.7,4.8-11.5,20.1-25.6,17.5c-1.1-2.6-1.9-4.1-2.2-5.6c-4.8,0.4-20.8,1.1-23.8,1.1
			C118.8,129.5,122.2,130.6,124,130.6z"/>
		<path class="st0" d="M114,128c0,0-4.8-1.9-12.6-3C106.9,125,112.2,126.5,114,128z"/>
		<path class="st2" d="M160.5,199c-7.1-7.1-20.1-15.6-28.6-18.2c4.5-6.3,13.8-17.5,11.2-36.4c1.5,0,9.7,2.2,13.8-1.9
			c4.1-4.1,4.5-5.6,10.4-9.3c6.7-4.5,9.7-5.9,13-7.8c1.9,3,8.5,12.6,7.1,16.7c-1.5,4.5-5.2,5.9-8.2,10
			C168.7,167,168.7,173.7,160.5,199z"/>
		<path class="st0" d="M137.4,126.8c0,0,7.8-5.2,5.9-16.7C146,114.2,144.1,123.9,137.4,126.8z"/>
	</g>
</g>
</svg>
