<svg width="150" version="1.1" xmlns="http://www.w3.org/2000/svg" xmlns:xlink="http://www.w3.org/1999/xlink" x="0px" y="0px"
	 viewBox="0 0 303.5 87.1" style="enable-background:new 0 0 303.5 87.1;" xml:space="preserve">
<style type="text/css">
	.st0{fill:#353145;}
	.st1{fill:#E6A74E;}
	.st2{fill:#CC3342;}
	.st3{fill:#51535E;}
</style>
<g id="BACKGROUND">
</g>
<g id="OBJECTS">
	<g>
		<g>
			<g>
				<path class="st0" d="M52.4,50c-0.5-0.5-1.3-1.5-3-4.1c-0.4-1.4,0.2-5.6,1-9.4c0.7-3.4-0.5-3.9-1.4-5c0.6-2.3,2.7-9.9,2.3-12.5
					c-0.4-2.7-3-7.7-2.7-7.9c0.2-0.2,0.9-0.6,1.1-0.9c0.3-0.3,1.6-0.1,1.6-0.5c0-0.4-1.6-0.3-2.2-0.3c0.3-0.4,0.5-0.8,0.7-1.3
					c0.3,0,1.2,0.3,1.4,0.1c0.2-0.2-0.5-0.6-1.3-0.9C50.1,6.7,50.7,5,50.4,5c-0.4,0-0.7,0.8-1.3,2.2c-1.3,1.7-2.8,2.8-2.3,4.3
					c0.6,1.8,1.1,5.6,1.9,7.8c-0.1,1-0.3,2.1-0.7,3.2c0-2.1-0.7-4.4-3.4-4.4c-3.4,0-3.6,3.7-3.2,5.9c0.2,1,0.7,1.9,1.2,2.6
					c0,0,1.2,1.2,2.9,0.5c1.5-0.7,2.1-2.3,2.4-3.7c-0.2,2.1-1.7,5.5-5.3,3.9c0,0.4-0.1,0.8-0.3,1.1c0.3,1,1.9,4.9,4.7,4.3
					c-1.2,0.6-3.8-0.2-5.1-4.2c-1.3,0-4.3,2.5-6.8,6c-2.5,3.4-3.9,3.4-5.9,3.2c0.9-0.1,2.6,0.6,5.2-2.8c2.3-3.1,4.4-5.3,5.7-6.2
					c-0.7-0.4-1.6-0.9-2.3-1.2c-0.5,1.5-1,3.1-1.7,4.8c-0.6-0.9-1.7-1.8-2.8-4.2c1,1.2,1.9,2.4,2.8,3.4c0.9-2.2,1.2-4.2,1.2-4.2
					c0.1-0.6,0.1-1.3,0.1-1.9c0.7-0.7,1.3-1.7,1.5-2.7c0.4-2.2,0.2-5.9-3.6-5.9c-3.7,0-4,3.7-3.6,5.9c0.1,0.8,0.5,1.5,1,2.1
					c0,0,2.2,2.5,4.3,0.8c-0.7,0.9-2.8,1.3-4.4-0.2c-0.1,0.5-0.3,0.9-0.5,1.2c0,0-4.2,1.9-9.8,4.3c-5.6,2.4-8.5,4.1-7.6,6.2
					c1,2.2,2.9,2.7,5.9,3.5c1.9,0.5,2.7,1,5.8,0.3c0.9,0,2.2,0.1,3.4,0.1c0.4,2.6,0.1,5.7-2.6,9.3c-4.7,6.1-12.3,17.8-18.3,22.7
					c0,0-1.6,1.1-3,3C4.5,77.6,3.2,78,3.7,79c0.5,1,3.6,0.2,4.7-0.9c0.8-0.8,2.6-1.7,4.3-2.6c-0.6-0.4-1.7-1.3-2.6-2.3
					c1.6,1.1,5.2,3.1,6.2,3.5c1.6-3.2,7.4-12.2,18.2-21.5c0.4-1.4,1.1-3.9,2-6.7c1.3-4.2,3.3-6.3,4.4-7.4c1.1-1.1,1.4-1.8-1.1-5.7
					c-1.8,1-4.2,2.4-5.1,3.3c-0.9,0.9-1.5,2.7-4.9,1.9c0,0,2.8,0.2,4-1.4c1.2-1.6,3.7-2.8,5.9-4.5c1.7,3.1,3.3,4.8,1.8,6.4
					c-1.6,1.6-3.6,4.7-4.5,7.6c-0.9,2.9-2.5,8.3-3.3,9.5c-1.5,1.5-2.8,2.6-4.2,6.5c-1.4,3.9-2.7,5.8-3.3,6.4
					c-0.5,0.5-1.9,0.7-2.8,1.5l0,0c0,0-1,0.5-1.5,1c0,0.3,0,0.6,0,0.6h0.5c-0.9,1.8-2.1,4.7-1.7,4.7c0.4,0,1.5,0.5,5.7-4.9
					c4.2-5.4,9.2-11.2,11.2-14.5c0.7-1.2,1.5-2.3,2.3-3.3c2.4,2.9,4.3,4.7,4.3,5.5c0,1.1-3.2,10.4-3.2,14.2c0,0-0.3,2.3,0.4,2.9
					c0.5,0,2.3,0,4,0c0.1,0,0.2,0,0.3,0c0.2,0,0.3,0,0.5,0c0.9,0,1.8,0,2.3,0c0.5,0,0.8,0,0.8,0c1.1,0,3.1,0,3.9,0
					c1.1,0-0.1-0.7-0.9-0.9c-0.8-0.3-3.5-1.4-3.7-3.6c1-2.1,6.1-11.6,7.7-14.6C58.1,56.8,56.8,55.5,52.4,50z M28.1,37.4
					c-0.4-1.5-3-0.7-3.4-0.3c-0.6,0-1-0.3-2.7-0.7c0,0,3.6-0.3,6.4-0.3c0.2,0.5,0.4,1,0.6,1.5C28.7,37.5,28.4,37.5,28.1,37.4z
					 M46.8,28.8c-0.5-0.7-0.4-1.3-0.4-1.3c0.2,0.7,0.5,1,0.9,1.5c0.6,0.9,1.1,1.9,0.6,2.6C48.1,30.8,47.3,29.4,46.8,28.8z
					 M50.7,61.1c0,0-1.4,2.8-2,6c-0.6,3.2-1.6,5.3-2.4,6.8c-0.2,0.3-0.3,0.4-0.5,0.9c0.1-0.8,0.2-1,0.5-1.7c0.8-1.6,1.7-4,2-6.1
					c0.2-1.9,1.5-5.3,2.4-6.5c-0.2-1.3-0.7-2.6-1.6-4.2c-1-0.7-3.2-2.4-5.2-4.3c-1.7,2-2.9,3.1-3.8,4.1c0,0,2.7-3.5,3.8-4.6
					c2.5,2.5,8,6.5,8.6,7.1C51.7,59.6,51.1,60.4,50.7,61.1z"/>
				<path class="st1" d="M49,31.5c0.6,0.6,1.6,1.4,1.6,2.8c0.1,2.1-0.5,3.2-0.8,5.4c-0.3,2.2-0.7,5.6-0.3,6.2
					c0.4,0.6,1.8,2.7,2.3,3.4c-1,1.5-1,6.6-14.7-0.5c0.3-1.4,1.3-3.2,2.3-4.8c1.1-1.8,3.1-3.5,2.8-4.3c-0.2-0.9-1.6-3.3-2.4-4.8
					c0.6-0.3,2.7-1.1,2.1-6.5C43.6,33.5,47.1,33.2,49,31.5z"/>
				<path class="st0" d="M49.2,46.3c0,0-2,3.5-4.3,4.2C46.8,50,48.3,48.8,49.2,46.3z"/>
				<path class="st0" d="M45,51.1c0,0,3.9,0,5.3-3.2C49.9,49.7,48.2,51.4,45,51.1z"/>
				<path class="st0" d="M42.1,34.4c0,0,1.5,3.6,4.2,2.9C44.6,38.1,42.8,36.9,42.1,34.4z"/>
				<path class="st1" d="M20.7,79c0.3,0,0.8,0.2,2.4-1.2c-1-1,1.7-5.9,1.7-5.9c-1.3,0.4-3.7,2.1-4.6,2.7c0.1,0.3,0.1,0.5,0.1,0.5
					l2.1-0.8C21.6,76.1,20.4,79,20.7,79z"/>
				<path class="st1" d="M46.2,73.9c0.9,1.3,3,4.1,5.1,3.6c1.5,0.7,3.5,1.5,2.2,1.5c-1.3,0-3.5,0-4.8,0c-0.3-0.4-1.5-2.2-2-3.2
					c-0.3,0.8-0.5,1.5-0.7,3.2c-0.3,0,0,0-0.4,0C45.5,77.9,45.2,75.3,46.2,73.9z"/>
				<path class="st2" d="M24.7,37c-0.6,1.6-0.8,2.4-0.8,3.9c-2,0-9.4-1.3-9.4-5c0-2.3,6.9-4.9,11.1-6.7c3.6-1.5,5.4-2.4,6.6-2.9
					c1.4,2,3.5,5.2,3.9,5.8c0.5-1.2,1.4-3.8,1.7-4.8c0.7,0.3,1.9,0.7,2.3,1.2c-0.8,0.6-3.2,3.1-4.3,4.4c-1,1.3-3.1,5.4-6.9,4.7
					c-0.3-0.7-0.5-1.1-0.6-1.5c-1.3,0.1-5.6,0.3-6.4,0.3C23.3,36.7,24.2,37,24.7,37z"/>
				<path class="st0" d="M22,36.3c0,0-1.3-0.5-3.4-0.8C20.1,35.5,21.5,35.9,22,36.3z"/>
				<path class="st2" d="M34.5,55.4c-1.9-1.9-5.4-4.2-7.7-4.9c1.2-1.7,3.7-4.7,3-9.8c0.4,0,2.6,0.6,3.7-0.5c1.1-1.1,1.2-1.5,2.8-2.5
					c1.8-1.2,2.6-1.6,3.5-2.1c0.5,0.8,2.3,3.4,1.9,4.5c-0.4,1.2-1.4,1.6-2.2,2.7C36.7,46.8,36.7,48.6,34.5,55.4z"/>
				<path class="st0" d="M28.3,36c0,0,2.1-1.4,1.6-4.5C30.6,32.6,30.1,35.2,28.3,36z"/>
			</g>
		</g>
		<g>
			<path class="st0" d="M79.1,49.3c-1.6,1.4-3.7,2.1-6.2,2.1c-2.8,0-5.1-0.6-6.9-1.9v-6.8c2.1,2.1,4.2,3.2,6.5,3.2
				c0.8,0,1.5-0.2,2-0.6c0.6-0.5,1-1.1,1-1.9c0-1.1-0.9-2-2.6-2.5c-2.7-0.8-4.3-1.3-4.9-1.6c-1.7-1.1-2.6-2.9-2.6-5.5
				c0-2.3,0.8-4.3,2.3-5.7c1.5-1.5,3.3-2.2,5.5-2.2c3.2,0,5.9,1.2,8.1,3.7l-3,4.8c-1.2-2.2-2.8-3.3-4.6-3.3c-1.6,0-2.4,0.7-2.4,2
				c0,0.9,0.9,1.6,2.7,2.1c2.6,0.7,4.2,1.4,5,1.9c1.8,1.2,2.7,3.1,2.7,5.7C81.7,45.8,80.9,47.9,79.1,49.3z"/>
			<path class="st0" d="M104.4,48.9L99.2,51l-1.6-3.7H88L86.4,51L81.1,49l11.4-23.4L104.4,48.9z M95.6,42.7l-2.8-6.6L90,42.7H95.6z"
				/>
			<path class="st0" d="M120.1,45.4l-1.2,5.1h-13.4V26.9l6.1-0.4v18.9H120.1z"/>
			<path class="st0" d="M135.2,49.3c-1.6,1.4-3.7,2.1-6.2,2.1c-2.8,0-5.1-0.6-6.9-1.9v-6.8c2.1,2.1,4.2,3.2,6.5,3.2
				c0.8,0,1.5-0.2,2-0.6c0.6-0.5,1-1.1,1-1.9c0-1.1-0.9-2-2.6-2.5c-2.7-0.8-4.3-1.3-4.9-1.6c-1.7-1.1-2.6-2.9-2.6-5.5
				c0-2.3,0.8-4.3,2.3-5.7c1.5-1.5,3.3-2.2,5.5-2.2c3.2,0,5.9,1.2,8.1,3.7l-3,4.8c-1.2-2.2-2.8-3.3-4.6-3.3c-1.6,0-2.4,0.7-2.4,2
				c0,0.9,0.9,1.6,2.7,2.1c2.6,0.7,4.2,1.4,5,1.9c1.8,1.2,2.7,3.1,2.7,5.7C137.8,45.8,136.9,47.9,135.2,49.3z"/>
			<path class="st0" d="M156.4,45.5l-1.2,5.1h-14V26.9h13.5l0.9,5.1H147v3.7h6.6v5.1H147v4.7H156.4z"/>
			<path class="st0" d="M177.3,48.4l-5.1,3.1l-6.8-13.3c0.6,0,1.1,0.1,1.4,0.1c1,0,1.8-0.2,2.6-0.8c0.9-0.6,1.3-1.4,1.3-2.4
				s-0.4-1.8-1.1-2.4c-0.6-0.5-1.4-0.8-2.4-0.8c-0.8,0-1.5,0.1-2,0.2v18.4l-5.8,0.4V26.9c3.2-0.2,5.9-0.4,7.9-0.4
				c2.7,0,4.9,0.6,6.7,1.8c2,1.4,3.1,3.4,3.1,6.2c0,2.8-1.4,5-4.1,6.5L177.3,48.4z"/>
			<path class="st0" d="M200,47.9c-2.3,2.3-5.2,3.5-8.8,3.5c-3.6,0-6.5-1.1-8.8-3.4c-2.3-2.3-3.4-5.4-3.4-9.2c0-3.8,1.1-6.9,3.4-9.2
				c2.3-2.3,5.2-3.5,8.8-3.5c3.6,0,6.6,1.1,8.8,3.5c2.3,2.3,3.4,5.4,3.4,9.2C203.5,42.5,202.3,45.6,200,47.9z M191.2,32.2
				c-1.7,0-3.1,0.6-4.2,1.8c-1.1,1.2-1.6,2.7-1.6,4.6c0,2,0.5,3.6,1.5,4.8c1,1.3,2.5,1.9,4.3,1.9c1.8,0,3.2-0.6,4.3-1.9
				c1-1.2,1.5-2.7,1.5-4.7C197,34.7,194.9,32.2,191.2,32.2z"/>
			<path class="st1" d="M222.2,49.3c-1.6,1.4-3.7,2.1-6.2,2.1c-2.8,0-5.1-0.6-6.9-1.9v-6.8c2.1,2.1,4.2,3.2,6.5,3.2
				c0.8,0,1.5-0.2,2-0.6c0.6-0.5,1-1.1,1-1.9c0-1.1-0.9-2-2.6-2.5c-2.7-0.8-4.3-1.3-4.9-1.6c-1.7-1.1-2.6-2.9-2.6-5.5
				c0-2.3,0.8-4.3,2.3-5.7c1.5-1.5,3.3-2.2,5.5-2.2c3.2,0,5.9,1.2,8.1,3.7l-3,4.8c-1.2-2.2-2.8-3.3-4.6-3.3c-1.6,0-2.4,0.7-2.4,2
				c0,0.9,0.9,1.6,2.7,2.1c2.6,0.7,4.2,1.4,5,1.9c1.8,1.2,2.7,3.1,2.7,5.7C224.8,45.8,223.9,47.9,222.2,49.3z"/>
			<path class="st1" d="M247.7,50.6l-6.1,0.4v-9.8h-7.4v9.4l-6.1,0.4V26.9l6.1-0.4V36h7.4v-9.1l6.1-0.4V50.6z"/>
			<path class="st1" d="M272.4,47.9c-2.3,2.3-5.2,3.5-8.8,3.5c-3.6,0-6.5-1.1-8.8-3.4c-2.3-2.3-3.4-5.4-3.4-9.2
				c0-3.8,1.1-6.9,3.4-9.2c2.3-2.3,5.2-3.5,8.8-3.5c3.6,0,6.6,1.1,8.8,3.5c2.3,2.3,3.4,5.4,3.4,9.2
				C275.8,42.5,274.7,45.6,272.4,47.9z M263.6,32.2c-1.7,0-3.1,0.6-4.2,1.8c-1.1,1.2-1.6,2.7-1.6,4.6c0,2,0.5,3.6,1.5,4.8
				c1,1.3,2.5,1.9,4.3,1.9c1.8,0,3.2-0.6,4.3-1.9c1-1.2,1.5-2.7,1.5-4.7C269.4,34.7,267.3,32.2,263.6,32.2z"/>
			<path class="st1" d="M294.5,41.8c-1.7,1.6-4,2.5-6.6,2.5c-1.1,0-1.9-0.1-2.5-0.2v6.4l-5.8,0.4V26.9c3.5-0.3,6.2-0.5,8-0.5
				c2.8,0,5,0.7,6.7,2.1c1.9,1.5,2.9,3.7,2.9,6.6C297.1,37.9,296.2,40.2,294.5,41.8z M289.7,32.8c-0.7-0.6-1.5-0.9-2.5-0.9
				c-0.7,0-1.3,0.1-1.8,0.2v6.4c0.7,0.1,1.3,0.2,1.9,0.2c1.9,0,3.5-1.3,3.5-3.4C290.8,34.3,290.4,33.5,289.7,32.8z"/>
		</g>
		<g>
			<path class="st3" d="M77.7,74.5h-1.4c-0.2,0-0.3,0-0.4-0.1s-0.2-0.2-0.2-0.3l-1.2-3h-5.8l-1.2,3c0,0.1-0.1,0.2-0.2,0.3
				c-0.1,0.1-0.2,0.1-0.4,0.1h-1.4l5.2-12.6h1.8L77.7,74.5z M69.2,69.8H74l-2-5.1c-0.1-0.3-0.3-0.7-0.4-1.2
				c-0.1,0.2-0.1,0.5-0.2,0.7c-0.1,0.2-0.1,0.4-0.2,0.5L69.2,69.8z"/>
			<path class="st3" d="M81.9,61.5v12.9h-1.6V61.5H81.9z"/>
			<path class="st3" d="M87.5,61.5v12.9h-1.6V61.5H87.5z"/>
			<path class="st3" d="M102.6,74.5h-0.7c-0.2,0-0.3,0-0.4-0.1c-0.1,0-0.2-0.1-0.2-0.3l-0.2-0.8c-0.2,0.2-0.5,0.4-0.7,0.6
				c-0.2,0.2-0.5,0.3-0.7,0.4s-0.5,0.2-0.8,0.3c-0.3,0.1-0.6,0.1-1,0.1c-0.4,0-0.7,0-1-0.1c-0.3-0.1-0.6-0.2-0.8-0.4
				c-0.2-0.2-0.4-0.4-0.5-0.7c-0.1-0.3-0.2-0.6-0.2-1.1c0-0.4,0.1-0.7,0.3-1s0.5-0.6,1-0.9c0.4-0.3,1-0.5,1.7-0.6
				c0.7-0.2,1.6-0.2,2.6-0.2v-0.7c0-0.7-0.2-1.2-0.5-1.6c-0.3-0.4-0.8-0.5-1.4-0.5c-0.4,0-0.7,0-1,0.1c-0.3,0.1-0.5,0.2-0.7,0.3
				s-0.4,0.2-0.5,0.3s-0.3,0.1-0.4,0.1c-0.1,0-0.2,0-0.3-0.1c-0.1-0.1-0.1-0.1-0.2-0.2l-0.3-0.5c0.5-0.5,1.1-0.8,1.6-1.1
				c0.6-0.2,1.2-0.4,1.9-0.4c0.5,0,1,0.1,1.4,0.2s0.7,0.4,1,0.7c0.3,0.3,0.5,0.6,0.6,1.1c0.1,0.4,0.2,0.9,0.2,1.4V74.5z M98.4,73.5
				c0.3,0,0.5,0,0.8-0.1c0.2-0.1,0.5-0.1,0.7-0.2s0.4-0.2,0.6-0.4c0.2-0.1,0.4-0.3,0.6-0.5v-1.8c-0.7,0-1.4,0-1.9,0.1
				s-0.9,0.2-1.3,0.4c-0.3,0.1-0.6,0.3-0.7,0.5s-0.2,0.4-0.2,0.7c0,0.2,0,0.4,0.1,0.6c0.1,0.2,0.2,0.3,0.3,0.4
				c0.1,0.1,0.3,0.2,0.5,0.2C98,73.5,98.2,73.5,98.4,73.5z"/>
			<path class="st3" d="M122,68.2c0,0.9-0.2,1.8-0.5,2.6c-0.3,0.8-0.7,1.4-1.3,2c-0.6,0.6-1.2,1-2,1.3c-0.8,0.3-1.7,0.5-2.6,0.5
				h-4.9V61.9h4.9c1,0,1.8,0.2,2.6,0.5c0.8,0.3,1.5,0.7,2,1.3s1,1.2,1.3,2C121.9,66.4,122,67.3,122,68.2z M120.2,68.2
				c0-0.8-0.1-1.5-0.3-2.1c-0.2-0.6-0.5-1.1-0.9-1.5c-0.4-0.4-0.9-0.7-1.4-1c-0.6-0.2-1.2-0.3-1.9-0.3h-3.1v9.8h3.1
				c0.7,0,1.3-0.1,1.9-0.3c0.6-0.2,1.1-0.5,1.4-1c0.4-0.4,0.7-0.9,0.9-1.5C120.1,69.7,120.2,69,120.2,68.2z"/>
			<path class="st3" d="M131.9,74.5h-0.7c-0.2,0-0.3,0-0.4-0.1c-0.1,0-0.2-0.1-0.2-0.3l-0.2-0.8c-0.2,0.2-0.5,0.4-0.7,0.6
				c-0.2,0.2-0.5,0.3-0.7,0.4s-0.5,0.2-0.8,0.3c-0.3,0.1-0.6,0.1-1,0.1c-0.4,0-0.7,0-1-0.1c-0.3-0.1-0.6-0.2-0.8-0.4
				c-0.2-0.2-0.4-0.4-0.5-0.7c-0.1-0.3-0.2-0.6-0.2-1.1c0-0.4,0.1-0.7,0.3-1s0.5-0.6,1-0.9c0.4-0.3,1-0.5,1.7-0.6
				c0.7-0.2,1.6-0.2,2.6-0.2v-0.7c0-0.7-0.2-1.2-0.5-1.6c-0.3-0.4-0.8-0.5-1.4-0.5c-0.4,0-0.7,0-1,0.1c-0.3,0.1-0.5,0.2-0.7,0.3
				s-0.4,0.2-0.5,0.3s-0.3,0.1-0.4,0.1c-0.1,0-0.2,0-0.3-0.1c-0.1-0.1-0.1-0.1-0.2-0.2l-0.3-0.5c0.5-0.5,1.1-0.8,1.6-1.1
				c0.6-0.2,1.2-0.4,1.9-0.4c0.5,0,1,0.1,1.4,0.2s0.7,0.4,1,0.7c0.3,0.3,0.5,0.6,0.6,1.1c0.1,0.4,0.2,0.9,0.2,1.4V74.5z M127.7,73.5
				c0.3,0,0.5,0,0.8-0.1c0.2-0.1,0.5-0.1,0.7-0.2s0.4-0.2,0.6-0.4c0.2-0.1,0.4-0.3,0.6-0.5v-1.8c-0.7,0-1.4,0-1.9,0.1
				c-0.5,0.1-0.9,0.2-1.3,0.4c-0.3,0.1-0.6,0.3-0.7,0.5s-0.2,0.4-0.2,0.7c0,0.2,0,0.4,0.1,0.6c0.1,0.2,0.2,0.3,0.3,0.4
				c0.1,0.1,0.3,0.2,0.5,0.2C127.3,73.5,127.5,73.5,127.7,73.5z"/>
			<path class="st3" d="M135.4,74.5v-8.9h1c0.2,0,0.4,0.1,0.4,0.3l0.1,1c0.4-0.4,0.8-0.8,1.3-1c0.5-0.3,1.1-0.4,1.7-0.4
				c0.5,0,0.9,0.1,1.3,0.2s0.7,0.4,1,0.7s0.5,0.7,0.6,1.1c0.1,0.4,0.2,0.9,0.2,1.4v5.7h-1.6v-5.7c0-0.7-0.2-1.2-0.5-1.6
				c-0.3-0.4-0.8-0.6-1.5-0.6c-0.5,0-0.9,0.1-1.3,0.3c-0.4,0.2-0.8,0.5-1.1,0.9v6.6H135.4z"/>
			<path class="st3" d="M152.7,67.2c0,0.1-0.1,0.1-0.1,0.1c0,0-0.1,0.1-0.2,0.1c-0.1,0-0.2,0-0.3-0.1c-0.1-0.1-0.2-0.2-0.4-0.2
				c-0.2-0.1-0.4-0.2-0.6-0.2c-0.2-0.1-0.5-0.1-0.9-0.1c-0.4,0-0.8,0.1-1.2,0.2c-0.3,0.2-0.6,0.4-0.9,0.7c-0.2,0.3-0.4,0.6-0.5,1.1
				s-0.2,0.9-0.2,1.4c0,0.5,0.1,1,0.2,1.4s0.3,0.8,0.5,1.1c0.2,0.3,0.5,0.5,0.8,0.7c0.3,0.1,0.7,0.2,1.1,0.2c0.4,0,0.7,0,1-0.1
				c0.3-0.1,0.5-0.2,0.6-0.3c0.2-0.1,0.3-0.2,0.4-0.3s0.2-0.1,0.3-0.1c0.1,0,0.2,0,0.3,0.1l0.5,0.6c-0.4,0.5-0.9,0.8-1.5,1
				s-1.2,0.3-1.9,0.3c-0.6,0-1.1-0.1-1.6-0.3c-0.5-0.2-0.9-0.5-1.3-0.9c-0.4-0.4-0.6-0.9-0.9-1.4c-0.2-0.6-0.3-1.2-0.3-1.9
				c0-0.7,0.1-1.3,0.3-1.8s0.5-1,0.8-1.5c0.4-0.4,0.8-0.7,1.4-1c0.5-0.2,1.2-0.3,1.8-0.3c0.6,0,1.2,0.1,1.7,0.3
				c0.5,0.2,0.9,0.5,1.3,0.9L152.7,67.2z"/>
			<path class="st3" d="M159.5,65.5c0.5,0,1.1,0.1,1.5,0.3s0.9,0.4,1.2,0.8s0.6,0.8,0.8,1.2c0.2,0.5,0.3,1.1,0.3,1.7
				c0,0.2,0,0.4-0.1,0.5c-0.1,0.1-0.2,0.1-0.3,0.1h-6.1c0,0.6,0.1,1.1,0.2,1.5s0.3,0.8,0.6,1c0.3,0.3,0.6,0.5,0.9,0.6
				s0.7,0.2,1.2,0.2c0.4,0,0.8,0,1-0.1c0.3-0.1,0.5-0.2,0.8-0.3c0.2-0.1,0.4-0.2,0.5-0.3c0.1-0.1,0.3-0.1,0.4-0.1
				c0.1,0,0.2,0,0.3,0.1l0.5,0.6c-0.2,0.2-0.4,0.4-0.7,0.6c-0.3,0.2-0.6,0.3-0.9,0.4c-0.3,0.1-0.6,0.2-1,0.3s-0.7,0.1-1,0.1
				c-0.6,0-1.2-0.1-1.8-0.3s-1-0.5-1.4-0.9s-0.7-0.9-0.9-1.5c-0.2-0.6-0.3-1.3-0.3-2c0-0.6,0.1-1.2,0.3-1.7s0.5-1,0.8-1.4
				s0.8-0.7,1.4-0.9C158.3,65.6,158.9,65.5,159.5,65.5z M159.6,66.6c-0.8,0-1.4,0.2-1.8,0.7c-0.4,0.4-0.7,1-0.8,1.8h5
				c0-0.4-0.1-0.7-0.2-1c-0.1-0.3-0.3-0.6-0.5-0.8c-0.2-0.2-0.4-0.4-0.7-0.5S159.9,66.6,159.6,66.6z"/>
			<path class="st3" d="M166.4,74.5v-8.9h0.9c0.2,0,0.3,0,0.4,0.1c0.1,0.1,0.1,0.2,0.1,0.3l0.1,1.4c0.3-0.6,0.7-1.1,1.2-1.5
				c0.5-0.3,1-0.5,1.6-0.5c0.3,0,0.5,0,0.7,0.1s0.4,0.1,0.6,0.2l-0.2,1.2c0,0.1-0.1,0.2-0.3,0.2c-0.1,0-0.2,0-0.4-0.1
				s-0.4-0.1-0.7-0.1c-0.6,0-1,0.2-1.4,0.5c-0.4,0.3-0.7,0.8-0.9,1.4v5.7H166.4z"/>
			<path class="st3" d="M180.7,62c0.1,0,0.2,0.1,0.3,0.2l7.5,9.5c0-0.2,0-0.3,0-0.4c0-0.1,0-0.3,0-0.4v-8.9h1.5v12.6h-0.9
				c-0.1,0-0.3,0-0.3-0.1s-0.2-0.1-0.3-0.2l-7.5-9.5c0,0.1,0,0.3,0,0.4c0,0.1,0,0.3,0,0.4v9h-1.5V61.9h0.9
				C180.5,61.9,180.6,61.9,180.7,62z"/>
			<path class="st3" d="M197.5,65.5c0.5,0,1.1,0.1,1.5,0.3s0.9,0.4,1.2,0.8s0.6,0.8,0.8,1.2c0.2,0.5,0.3,1.1,0.3,1.7
				c0,0.2,0,0.4-0.1,0.5c-0.1,0.1-0.2,0.1-0.3,0.1h-6.1c0,0.6,0.1,1.1,0.2,1.5s0.3,0.8,0.6,1c0.3,0.3,0.6,0.5,0.9,0.6
				s0.7,0.2,1.2,0.2c0.4,0,0.8,0,1-0.1c0.3-0.1,0.5-0.2,0.8-0.3c0.2-0.1,0.4-0.2,0.5-0.3c0.1-0.1,0.3-0.1,0.4-0.1
				c0.1,0,0.2,0,0.3,0.1l0.5,0.6c-0.2,0.2-0.4,0.4-0.7,0.6c-0.3,0.2-0.6,0.3-0.9,0.4c-0.3,0.1-0.6,0.2-1,0.3s-0.7,0.1-1,0.1
				c-0.6,0-1.2-0.1-1.8-0.3s-1-0.5-1.4-0.9s-0.7-0.9-0.9-1.5c-0.2-0.6-0.3-1.3-0.3-2c0-0.6,0.1-1.2,0.3-1.7s0.5-1,0.8-1.4
				s0.8-0.7,1.4-0.9C196.3,65.6,196.9,65.5,197.5,65.5z M197.6,66.6c-0.8,0-1.4,0.2-1.8,0.7c-0.4,0.4-0.7,1-0.8,1.8h5
				c0-0.4-0.1-0.7-0.2-1c-0.1-0.3-0.3-0.6-0.5-0.8c-0.2-0.2-0.4-0.4-0.7-0.5S197.9,66.6,197.6,66.6z"/>
			<path class="st3" d="M208,65.5c0.5,0,1.1,0.1,1.5,0.3s0.9,0.4,1.2,0.8s0.6,0.8,0.8,1.2c0.2,0.5,0.3,1.1,0.3,1.7
				c0,0.2,0,0.4-0.1,0.5c-0.1,0.1-0.2,0.1-0.3,0.1h-6.1c0,0.6,0.1,1.1,0.2,1.5s0.3,0.8,0.6,1c0.3,0.3,0.6,0.5,0.9,0.6
				s0.7,0.2,1.2,0.2c0.4,0,0.8,0,1-0.1c0.3-0.1,0.5-0.2,0.8-0.3c0.2-0.1,0.4-0.2,0.5-0.3c0.1-0.1,0.3-0.1,0.4-0.1
				c0.1,0,0.2,0,0.3,0.1l0.5,0.6c-0.2,0.2-0.4,0.4-0.7,0.6c-0.3,0.2-0.6,0.3-0.9,0.4c-0.3,0.1-0.6,0.2-1,0.3s-0.7,0.1-1,0.1
				c-0.6,0-1.2-0.1-1.8-0.3s-1-0.5-1.4-0.9s-0.7-0.9-0.9-1.5c-0.2-0.6-0.3-1.3-0.3-2c0-0.6,0.1-1.2,0.3-1.7s0.5-1,0.8-1.4
				s0.8-0.7,1.4-0.9C206.8,65.6,207.4,65.5,208,65.5z M208.1,66.6c-0.8,0-1.4,0.2-1.8,0.7c-0.4,0.4-0.7,1-0.8,1.8h5
				c0-0.4-0.1-0.7-0.2-1c-0.1-0.3-0.3-0.6-0.5-0.8c-0.2-0.2-0.4-0.4-0.7-0.5S208.4,66.6,208.1,66.6z"/>
			<path class="st3" d="M221.3,74.5c-0.2,0-0.4-0.1-0.4-0.3l-0.1-1.1c-0.4,0.5-0.8,0.8-1.3,1.1c-0.5,0.3-1.1,0.4-1.7,0.4
				c-0.5,0-1-0.1-1.4-0.3c-0.4-0.2-0.8-0.5-1.1-0.9c-0.3-0.4-0.5-0.9-0.7-1.4c-0.2-0.6-0.2-1.2-0.2-2c0-0.7,0.1-1.3,0.3-1.8
				s0.4-1.1,0.8-1.5s0.8-0.7,1.2-1c0.5-0.2,1-0.4,1.7-0.4c0.6,0,1,0.1,1.4,0.3c0.4,0.2,0.8,0.4,1.1,0.8v-4.9h1.6v12.9H221.3z
				 M218.2,73.3c0.5,0,1-0.1,1.4-0.4c0.4-0.2,0.8-0.6,1.1-1v-4.3c-0.3-0.4-0.6-0.7-1-0.8s-0.7-0.2-1.2-0.2c-0.9,0-1.5,0.3-2,0.9
				c-0.5,0.6-0.7,1.4-0.7,2.5c0,0.6,0.1,1.1,0.2,1.5s0.3,0.8,0.5,1c0.2,0.3,0.4,0.5,0.7,0.6S217.8,73.3,218.2,73.3z"/>
		</g>
	</g>
</g>
</svg>
