<svg width="60" version="1.1" id="_x39_" xmlns="http://www.w3.org/2000/svg" xmlns:xlink="http://www.w3.org/1999/xlink" x="0px" y="0px"
	 viewBox="0 0 200 200" style="enable-background:new 0 0 200 200;" xml:space="preserve">
<style type="text/css">
	.st0{fill:#FFE811;}
	.st1{fill:#E80728;}
	.st2{fill:#F7BC00;}
	.st3{fill:#D66C03;}
	.st4{fill:#2BD8A7;}
	.st5{fill:#0EC192;}
	.st6{fill:#6D4911;}
	.st7{fill:#492A02;}
</style>
<g>
	<g>
		<path class="st0" d="M100.3,43.7L44.4,23.1c2.4-2.5,5.2-4.6,8.2-6.2c8.1-4.4,17.7-5.5,26.7-2.2s15.6,10.4,18.9,19
			C99.3,36.9,100.1,40.2,100.3,43.7z"/>
		<path class="st0" d="M94.8,66.3c-8.7,14.4-26.4,24.9-41.6,19.3c-15-5.5-22-24.8-19.2-41.7L94.8,66.3z"/>
		<g>
			<path class="st1" d="M35.7,60.1c-0.3,0.7-0.6,1.3-1.1,1.8c-0.7-2.8-1-5.7-1.2-8.6C35.7,54.8,36.7,57.6,35.7,60.1z"/>
			<path class="st1" d="M50.2,65.4c-1.1,2.9-4.4,4.5-7.3,3.4c-2.9-1.1-4.5-4.4-3.4-7.3c1.1-2.9,4.4-4.5,7.3-3.4
				C49.8,59.2,51.3,62.5,50.2,65.4z"/>
			<path class="st1" d="M64.7,70.8c-1.1,2.9-4.4,4.5-7.3,3.4c-2.9-1.1-4.5-4.4-3.4-7.3c1.1-2.9,4.4-4.5,7.3-3.4
				C64.3,64.6,65.8,67.8,64.7,70.8z"/>
			<path class="st1" d="M79.2,76.1c-1.1,2.9-4.4,4.5-7.3,3.4c-2.9-1.1-4.5-4.4-3.4-7.3c1.1-2.9,4.4-4.5,7.3-3.4
				C78.8,69.9,80.3,73.2,79.2,76.1z"/>
			<path class="st1" d="M89.1,73.8c-2,2.1-4.2,4.1-6.5,5.8c0-0.7,0.1-1.4,0.3-2.1C83.9,74.9,86.5,73.5,89.1,73.8z"/>
		</g>
		<g>
			<path class="st1" d="M54.3,26.8l-9.9-3.6c2.4-2.5,5.2-4.6,8.2-6.2L54.3,26.8z"/>
			<polygon class="st1" points="69.1,14.4 72.4,33.4 54.3,26.8 			"/>
			<polygon class="st1" points="87.2,21.1 90.5,40.1 72.4,33.4 			"/>
			<path class="st1" d="M100.3,43.7l-9.9-3.6l7.6-6.4C99.3,36.9,100.1,40.2,100.3,43.7z"/>
		</g>
		<g>
			<polygon class="st2" points="41.1,94.7 11.9,160.6 22.7,168.6 48.8,97.5 			"/>
			<polygon class="st3" points="56.5,100.3 36.1,169.5 22.7,168.6 48.8,97.5 			"/>
		</g>
		<g>
			<path class="st4" d="M72.5,33.5l-8,21.7L34,44c0.4-2.6,1.1-5.1,2-7.5c1.9-5.2,4.8-9.7,8.4-13.3L72.5,33.5z"/>
			<path class="st5" d="M98.1,59.3c-0.9,2.4-2,4.7-3.4,7L64.5,55.2l8-21.7l27.9,10.2C100.7,48.8,100,54.1,98.1,59.3z"/>
		</g>
		<g>
			
				<rect x="35.6" y="85.4" transform="matrix(0.3451 -0.9386 0.9386 0.3451 -55.5807 102.025)" class="st6" width="19.4" height="10.9"/>
			
				<rect x="46" y="89.1" transform="matrix(0.3451 -0.9386 0.9386 0.3451 -52.3731 114.2375)" class="st7" width="19.4" height="11.1"/>
		</g>
	</g>
	<g>
		<path class="st0" d="M186.5,86.8l-48-35.3c3-1.7,6.3-2.9,9.6-3.7c9-2,18.5-0.4,26.2,5.3c7.7,5.7,12.1,14.3,12.9,23.5
			C187.5,80,187.3,83.4,186.5,86.8z"/>
		<path class="st0" d="M174.9,107c-12.3,11.5-32.3,16.6-45.3,7c-12.8-9.4-14.2-29.9-6.8-45.4L174.9,107z"/>
		<g>
			<path class="st1" d="M119.9,84.7c-0.4,0.6-1,1.1-1.6,1.5c0.1-2.9,0.6-5.8,1.3-8.6C121.3,79.5,121.5,82.5,119.9,84.7z"/>
			<path class="st1" d="M132.4,93.8c-1.9,2.5-5.4,3.1-8,1.2c-2.5-1.9-3.1-5.4-1.2-8c1.9-2.5,5.4-3.1,8-1.2
				C133.7,87.7,134.2,91.3,132.4,93.8z"/>
			<path class="st1" d="M144.8,102.9c-1.9,2.5-5.4,3.1-8,1.2c-2.5-1.9-3.1-5.4-1.2-8c1.9-2.5,5.4-3.1,7.9-1.2
				C146.1,96.8,146.7,100.4,144.8,102.9z"/>
			<path class="st1" d="M157.2,112.1c-1.9,2.5-5.4,3.1-7.9,1.2c-2.5-1.9-3.1-5.4-1.2-8c1.9-2.5,5.4-3.1,8-1.2
				C158.5,106,159.1,109.5,157.2,112.1z"/>
			<path class="st1" d="M167.4,112.7c-2.5,1.5-5.1,2.8-7.8,3.8c0.2-0.7,0.5-1.3,0.9-2C162.1,112.3,165,111.6,167.4,112.7z"/>
		</g>
		<g>
			<path class="st1" d="M147,57.8l-8.5-6.2c3-1.7,6.3-2.9,9.6-3.7L147,57.8z"/>
			<polygon class="st1" points="164.7,50 162.5,69.2 147,57.8 			"/>
			<polygon class="st1" points="180.2,61.4 178.1,80.6 162.5,69.2 			"/>
			<path class="st1" d="M186.5,86.8l-8.5-6.2l9.1-4C187.5,80,187.3,83.4,186.5,86.8z"/>
		</g>
		<g>
			<polygon class="st2" points="115.5,119.4 69.1,174.5 77.2,185.3 122.1,124.2 			"/>
			<polygon class="st3" points="128.7,129 89.9,189.8 77.2,185.3 122.1,124.2 			"/>
		</g>
		<g>
			<path class="st4" d="M162.6,69.3l-13.7,18.6l-26.2-19.2c1.1-2.3,2.5-4.6,4-6.7c3.3-4.5,7.3-8,11.8-10.5L162.6,69.3z"/>
			<path class="st5" d="M180.1,101.2c-1.5,2.1-3.3,4-5.2,5.8l-26-19.1l13.7-18.6l23.9,17.6C185.5,91.8,183.4,96.8,180.1,101.2z"/>
		</g>
		<g>
			
				<rect x="110.9" y="111.4" transform="matrix(0.5924 -0.8057 0.8057 0.5924 -44.9601 144.7958)" class="st6" width="19.4" height="10.9"/>
			
				<rect x="119.8" y="117.8" transform="matrix(0.5923 -0.8057 0.8057 0.5923 -46.6015 154.6226)" class="st7" width="19.4" height="11.1"/>
		</g>
	</g>
</g>
</svg>
